<?xml version="1.0" encoding="utf-8"?>
<!-- Generator: Adobe Illustrator 19.2.1, SVG Export Plug-In . SVG Version: 6.00 Build 0)  -->
<svg version="1.1" id="Layer_1" xmlns="http://www.w3.org/2000/svg" xmlns:xlink="http://www.w3.org/1999/xlink" x="0px" y="0px"
	 viewBox="0 0 512 512" style="enable-background:new 0 0 512 512;" xml:space="preserve">
<style type="text/css">
	.st0{fill:#BF360C;}
</style>
<g>
	<g>
		<path class="st0" d="M487.3,173.4c1.2-19.3-5.2-38.5-18.7-53.4c-14.6-16.2-35-24.7-56-24.2c-6-20.2-20.4-36.9-40.3-45.7
			c-19.9-8.9-42-8.4-61,0.7c-13.7-16-33.7-25.4-55.4-25.4s-41.8,9.4-55.4,25.4c-19-9-41.1-9.5-61-0.7c-19.9,8.9-34.3,25.6-40.3,45.7
			c-21-0.5-41.4,8-56,24.2c-13.4,14.9-19.9,34.1-18.7,53.4H0v16.7C0,243.4,16.3,294.6,47,338c27.8,39.2,65.4,69.4,109.3,88v60.8
			h199.4v-60.8c43.9-18.5,81.5-48.8,109.3-88c30.8-43.4,47-94.5,47-147.9v-16.7L487.3,173.4L487.3,173.4z M68.1,142.3
			c10.2-11.3,25.6-15.8,40.3-11.6l20.4,5.7l0.8-21.2c0.6-15.2,9.6-28.5,23.5-34.7c13.9-6.2,29.8-4,41.6,5.8L211,99.9l9.4-19
			c6.7-13.7,20.4-22.2,35.6-22.2s28.9,8.5,35.6,22.2l9.4,19l16.3-13.5c11.7-9.7,27.6-12,41.6-5.8c13.9,6.2,22.9,19.5,23.5,34.7
			l0.8,21.2l20.4-5.7c14.7-4.1,30.1,0.3,40.3,11.6c7.8,8.6,11.2,19.9,9.9,31H58.2C56.9,162.2,60.4,151,68.1,142.3z M189.7,453.3v-22
			h132.6v22L189.7,453.3L189.7,453.3z M437.7,318.6c-25.6,36.1-60.7,63.5-101.8,79.3H176.1c-41.1-15.8-76.2-43.1-101.8-79.3
			C50.7,285.5,37,247.1,34,206.8h444C475,247.1,461.3,285.5,437.7,318.6z"/>
	</g>
</g>
</svg>
