<?xml version="1.0" encoding="UTF-8" standalone="no"?>
<!DOCTYPE svg PUBLIC "-//W3C//DTD SVG 1.1//EN" "http://www.w3.org/Graphics/SVG/1.1/DTD/svg11.dtd">
<svg width="100%" height="100%" viewBox="0 0 316 262" version="1.1" xmlns="http://www.w3.org/2000/svg" xmlns:xlink="http://www.w3.org/1999/xlink" xml:space="preserve" style="fill-rule:evenodd;clip-rule:evenodd;stroke-linejoin:round;stroke-miterlimit:1.41421;">
    <g transform="matrix(1,0,0,1,-86.4,-113.3)">
        <path d="M396.8,184.3C395.5,183.6 365.3,167.9 314.9,158.4L313,150.1C308,128.5 288.9,113.3 266.6,113.3L221.3,113.3C199.1,113.3 180,128.4 174.9,150.1L173,158.4C122.6,167.8 92.3,183.6 91.1,184.3C88.3,185.8 86.4,188.8 86.4,192L86.4,294.8C86.4,336 119.9,369.5 161.1,369.5C165.9,369.5 169.8,365.6 169.8,360.8C169.8,356 165.9,352.1 161.1,352.1C129.6,352.1 103.8,326.4 103.8,294.8L103.8,197.5C114.3,192.7 141.9,181.4 181.7,174.6C185.1,174 187.9,171.4 188.7,168L191.9,154.1C195.1,140.4 207.2,130.8 221.3,130.8L266.6,130.8C280.7,130.8 292.8,140.4 296,154.1L299.2,168C300,171.4 302.8,174 306.2,174.6C345.8,181.5 373.5,192.8 384.1,197.5L384.1,294.8C384.1,326.3 358.4,352.1 326.8,352.1C322,352.1 318.1,356 318.1,360.8C318.1,365.6 322,369.5 326.8,369.5C368,369.5 401.5,336 401.5,294.8L401.5,192C401.4,188.7 399.7,185.8 396.8,184.3Z" style="fill:white;fill-rule:nonzero;"/>
        <path d="M114.8,166.4C115.7,166.4 116.6,166.3 117.5,165.9C126.7,162.9 136.3,160.1 146.1,157.8C150.8,156.7 153.7,152 152.6,147.3C151.5,142.6 146.8,139.7 142.1,140.8C131.8,143.3 121.7,146.1 112,149.3C107.4,150.8 105,155.8 106.4,160.3C107.8,164.1 111.2,166.4 114.8,166.4Z" style="fill:white;fill-rule:nonzero;"/>
        <path d="M243.9,173.5C188.5,173.5 143.5,218.5 143.5,273.9C143.5,329.3 188.5,374.4 243.9,374.4C299.3,374.4 344.3,329.4 344.3,274C344.3,218.6 299.3,173.5 243.9,173.5ZM243.9,357C198.1,357 160.9,319.8 160.9,274C160.9,228.2 198.1,191 243.9,191C289.7,191 326.9,228.2 326.9,274C326.9,319.8 289.6,357 243.9,357Z" style="fill:white;fill-rule:nonzero;"/>
    </g>
</svg>
