<?xml version="1.0" encoding="utf-8"?>
<!-- Generator: Adobe Illustrator 19.2.1, SVG Export Plug-In . SVG Version: 6.00 Build 0)  -->
<svg version="1.1" id="Layer_1" xmlns="http://www.w3.org/2000/svg" xmlns:xlink="http://www.w3.org/1999/xlink" x="0px" y="0px"
	 viewBox="0 0 512 512" style="enable-background:new 0 0 512 512;" xml:space="preserve">
<style type="text/css">
	.st0{fill:#BF360C;}
</style>
<g>
	<g>
		<g>
			<path class="st0" d="M473.6,165.3V23.5c0-4.5-2.4-8.6-6.2-10.8c-3.9-2.2-8.6-2.2-12.5,0L346.3,75.4
				c-28.8-9.3-59.2-14.1-90.3-14.1s-61.5,4.7-90.3,14.1L57.1,12.7c-3.9-2.2-8.6-2.2-12.5,0s-6.2,6.4-6.2,10.8v141.8
				C13.3,200,0,240,0,281.2c0,59.1,26.9,114.5,75.7,156.1C124,478.3,188,501,256,501s132-22.6,180.3-63.7
				c48.8-41.6,75.7-97,75.7-156.1C512,240,498.8,200,473.6,165.3z M256,476c-127.4,0-231-87.4-231-194.8c0-37,12.4-73.1,35.8-104.2
				c1.6-2.2,2.5-4.8,2.5-7.5V45.2l94.7,54.7c3.1,1.8,6.9,2.2,10.3,1c27.8-9.6,57.3-14.5,87.6-14.5c30.3,0,59.8,4.9,87.6,14.5
				c3.4,1.2,7.2,0.8,10.3-1l94.7-54.7v124.3c0,2.7,0.9,5.3,2.5,7.5c23.5,31.1,35.8,67.2,35.8,104.2C487,388.6,383.4,476,256,476z"/>
			<circle class="st0" cx="174.5" cy="206.3" r="12.5"/>
			<circle class="st0" cx="337.5" cy="206.3" r="12.5"/>
			<path class="st0" d="M411.2,154.9c6.9,0,12.5-5.6,12.5-12.5v-32.4c0-6.9-5.6-12.5-12.5-12.5s-12.5,5.6-12.5,12.5v32.3
				C398.7,149.3,404.3,154.9,411.2,154.9z"/>
			<path class="st0" d="M100.8,154.9c6.9,0,12.5-5.6,12.5-12.5v-32.4c0-6.9-5.6-12.5-12.5-12.5c-6.9,0-12.5,5.6-12.5,12.5v32.3
				C88.3,149.3,93.9,154.9,100.8,154.9z"/>
			<path class="st0" d="M156,274.1l-59.1-15.4c-6.7-1.7-13.5,2.3-15.2,8.9c-1.7,6.7,2.3,13.5,8.9,15.2l59.1,15.4
				c1.1,0.3,2.1,0.4,3.2,0.4c5.5,0,10.6-3.7,12.1-9.3C166.6,282.6,162.6,275.8,156,274.1z"/>
			<path class="st0" d="M149.7,324l-59.1,15.4c-6.7,1.7-10.7,8.6-8.9,15.2c1.5,5.6,6.5,9.3,12.1,9.3c1,0,2.1-0.1,3.2-0.4l59.1-15.4
				c6.7-1.7,10.7-8.6,8.9-15.2C163.1,326.3,156.3,322.3,149.7,324z"/>
			<path class="st0" d="M347.1,289.3c1.5,5.6,6.5,9.3,12.1,9.3c1,0,2.1-0.1,3.2-0.4l59.1-15.4c6.7-1.7,10.7-8.6,8.9-15.2
				c-1.7-6.7-8.6-10.7-15.2-8.9L356,274.1C349.4,275.8,345.4,282.6,347.1,289.3z"/>
			<path class="st0" d="M421.5,339.4L362.3,324c-6.7-1.7-13.5,2.3-15.2,8.9c-1.7,6.7,2.3,13.5,8.9,15.2l59.1,15.4
				c1.1,0.3,2.1,0.4,3.2,0.4c5.5,0,10.6-3.7,12.1-9.3C432.2,348,428.1,341.2,421.5,339.4z"/>
			<path class="st0" d="M322.6,379.2h-22.5c-14.2,0-26.2-9.4-30.2-22.3c5.2-2.4,9.7-6.2,13-11l17.7-25.6c4.9-7.1,5.5-16.3,1.4-23.9
				c-4-7.6-11.9-12.4-20.5-12.4h-51c-8.6,0-16.5,4.7-20.5,12.4c-4,7.6-3.5,16.8,1.4,23.9l17.7,25.6c3.3,4.8,7.8,8.6,13,11
				c-4,12.9-16,22.3-30.2,22.3h-22.5c-6.9,0-12.5,5.6-12.5,12.5s5.6,12.5,12.5,12.5h22.5c17.8,0,33.7-8.3,44.1-21.2
				c10.4,12.9,26.3,21.2,44.1,21.2h22.5c6.9,0,12.5-5.6,12.5-12.5S329.5,379.2,322.6,379.2z M256,335.1c-1.2,0-4.3-0.3-6.3-3.3
				L234,309.1h44l-15.6,22.7C260.3,334.7,257.2,335.1,256,335.1z"/>
		</g>
	</g>
</g>
</svg>
