<?xml version="1.0" encoding="UTF-8" standalone="no"?><!DOCTYPE svg PUBLIC "-//W3C//DTD SVG 1.1//EN" "http://www.w3.org/Graphics/SVG/1.1/DTD/svg11.dtd"><svg width="100%" height="100%" viewBox="0 0 24 24" version="1.1" xmlns="http://www.w3.org/2000/svg" xmlns:xlink="http://www.w3.org/1999/xlink" xml:space="preserve" style="fill-rule:evenodd;clip-rule:evenodd;stroke-linejoin:round;stroke-miterlimit:1.41421;"><path d="M5,3l14,0c1.097,0 2,0.903 2,2l0,14c0,1.097 -0.903,2 -2,2l-14,0c-1.097,0 -2,-0.903 -2,-2l0,-14c0,-1.097 0.903,-2 2,-2m13,2l-2.5,0c-1.92,0 -3.5,1.58 -3.5,3.5l0,2.5l-2,0l0,3l2,0l0,7l3,0l0,-7l3,0l0,-3l-3,0l0,-2c0,-0.549 0.451,-1 1,-1l2,0l0,-3Z" style="fill:#fff7f7;fill-rule:nonzero;"/></svg>