<?xml version="1.0" encoding="utf-8"?>
<!-- Generator: Adobe Illustrator 19.2.1, SVG Export Plug-In . SVG Version: 6.00 Build 0)  -->
<svg version="1.1" id="Capa_1" xmlns="http://www.w3.org/2000/svg" xmlns:xlink="http://www.w3.org/1999/xlink" x="0px" y="0px"
	 viewBox="0 0 226.7 226.7" style="enable-background:new 0 0 226.7 226.7;" xml:space="preserve">
<style type="text/css">
	.st0{fill:#BF360C;}
</style>
<path class="st0" d="M191.4,78.1c0-43-35-78.1-78-78.1c-43,0-78.1,35-78.1,78.1c0,40.5,31,73.9,70.6,77.7v20.6H78.1
	c-4.1,0-7.5,3.4-7.5,7.5s3.4,7.5,7.5,7.5h27.8v27.8c0,4.1,3.4,7.5,7.5,7.5s7.5-3.4,7.5-7.5v-27.8h27.8c4.1,0,7.5-3.4,7.5-7.5
	s-3.4-7.5-7.5-7.5h-27.8v-20.6C160.4,151.9,191.4,118.6,191.4,78.1z M50.3,78.1c0-34.8,28.3-63.1,63.1-63.1c34.8,0,63,28.3,63,63.1
	c0,34.8-28.3,63-63,63C78.6,141.1,50.3,112.8,50.3,78.1z"/>
</svg>
