<?xml version="1.0" encoding="utf-8"?>
<!-- Generator: Adobe Illustrator 19.2.1, SVG Export Plug-In . SVG Version: 6.00 Build 0)  -->
<svg version="1.1" id="Layer_1" xmlns="http://www.w3.org/2000/svg" xmlns:xlink="http://www.w3.org/1999/xlink" x="0px" y="0px"
	 viewBox="0 0 512 512" style="enable-background:new 0 0 512 512;" xml:space="preserve">
<style type="text/css">
	.st0{fill:#BF360C;}
</style>
<g>
	<g>
		<path class="st0" d="M447.5,168c-3.9-7.9-12-12.9-20.8-12.9H309.2l60.7-121.5c3.6-7.2,3.2-15.8-1-22.6c-4.2-6.9-11.7-11-19.8-11
			H209.5c-8.8,0-16.9,5-20.8,12.9L64.5,261.1c-3.6,7.2-3.2,15.8,1,22.6c4.2,6.9,11.7,11,19.8,11h126.4l-40.5,189.1
			c-2.3,10.7,3.2,21.5,13.1,26.1c3.1,1.4,6.4,2.1,9.6,2.1c7.1,0,14.1-3.3,18.6-9.3l232.7-310.3C450.6,185.3,451.4,175.9,447.5,168z
			 M238.9,390l24.3-113.6c1.5-6.9-0.2-14-4.7-19.5c-4.4-5.5-11.1-8.6-18.1-8.6H123L223.8,46.5h87.6L250.7,168
			c-3.6,7.2-3.2,15.8,1,22.6c4.2,6.9,11.7,11,19.8,11h108.6L238.9,390z"/>
	</g>
</g>
</svg>
