<?xml version="1.0" encoding="utf-8"?>
<!-- Generator: Adobe Illustrator 19.2.1, SVG Export Plug-In . SVG Version: 6.00 Build 0)  -->
<svg version="1.1" id="Capa_1" xmlns="http://www.w3.org/2000/svg" xmlns:xlink="http://www.w3.org/1999/xlink" x="0px" y="0px"
	 viewBox="0 0 228.1 228.1" style="enable-background:new 0 0 228.1 228.1;" xml:space="preserve">
<style type="text/css">
	.st0{fill:#BF360C;}
</style>
<path class="st0" d="M228.1,7.5L228.1,7.5c0-4.2-3.4-7.5-7.5-7.5h0c-0.1,0-0.1,0-0.2,0h-43.9c-4.1,0-7.5,3.4-7.5,7.5
	s3.4,7.5,7.5,7.5h26L158,59.5c-17.3-14.8-39.1-22.9-62.2-22.9c-25.6,0-49.6,10-67.7,28.1C10,82.7,0,106.7,0,132.3
	c0,25.6,10,49.6,28,67.7c18.1,18.1,42.1,28.1,67.7,28.1s49.6-10,67.7-28.1c18.1-18.1,28-42.1,28-67.7c0-23.1-8.1-44.9-22.9-62.2
	l44.5-44.5l0,26c0,4.1,3.4,7.5,7.5,7.5h0c4.1,0,7.5-3.4,7.5-7.5L228.1,7.5L228.1,7.5L228.1,7.5z M152.9,189.4
	c-15.3,15.3-35.5,23.7-57.1,23.7s-41.9-8.4-57.1-23.7C23.4,174.2,15,153.9,15,132.3s8.4-41.8,23.7-57.1C53.9,60,74.2,51.6,95.8,51.6
	c21.6,0,41.9,8.4,57.1,23.7c15.3,15.3,23.7,35.5,23.7,57.1C176.5,153.9,168.1,174.2,152.9,189.4z"/>
</svg>
