<?xml version="1.0" encoding="utf-8"?>
<!-- Generator: Adobe Illustrator 19.2.1, SVG Export Plug-In . SVG Version: 6.00 Build 0)  -->
<svg version="1.1" id="Capa_1" xmlns="http://www.w3.org/2000/svg" xmlns:xlink="http://www.w3.org/1999/xlink" x="0px" y="0px"
	 viewBox="0 0 487.7 487.7" style="enable-background:new 0 0 487.7 487.7;" xml:space="preserve">
<style type="text/css">
	.st0{fill:#BF360C;}
	.st1{fill:#FFFFFF;}
</style>
<circle class="st0" cx="243.9" cy="243.9" r="243.9"/>
<g>
	<g>
		<path class="st1" d="M396.8,184.3c-1.3-0.7-31.5-16.4-81.9-25.9l-1.9-8.3c-5-21.6-24.1-36.8-46.4-36.8h-45.3
			c-22.2,0-41.3,15.1-46.4,36.8l-1.9,8.3c-50.4,9.4-80.7,25.2-81.9,25.9c-2.8,1.5-4.7,4.5-4.7,7.7v102.8c0,41.2,33.5,74.7,74.7,74.7
			c4.8,0,8.7-3.9,8.7-8.7c0-4.8-3.9-8.7-8.7-8.7c-31.5,0-57.3-25.7-57.3-57.3v-97.3c10.5-4.8,38.1-16.1,77.9-22.9
			c3.4-0.6,6.2-3.2,7-6.6l3.2-13.9c3.2-13.7,15.3-23.3,29.4-23.3h45.3c14.1,0,26.2,9.6,29.4,23.3l3.2,13.9c0.8,3.4,3.6,6,7,6.6
			c39.6,6.9,67.3,18.2,77.9,22.9v97.3c0,31.5-25.7,57.3-57.3,57.3c-4.8,0-8.7,3.9-8.7,8.7c0,4.8,3.9,8.7,8.7,8.7
			c41.2,0,74.7-33.5,74.7-74.7V192C401.4,188.7,399.7,185.8,396.8,184.3z"/>
		<path class="st1" d="M114.8,166.4c0.9,0,1.8-0.1,2.7-0.5c9.2-3,18.8-5.8,28.6-8.1c4.7-1.1,7.6-5.8,6.5-10.5
			c-1.1-4.7-5.8-7.6-10.5-6.5c-10.3,2.5-20.4,5.3-30.1,8.5c-4.6,1.5-7,6.5-5.6,11C107.8,164.1,111.2,166.4,114.8,166.4z"/>
		<path class="st1" d="M243.9,173.5c-55.4,0-100.4,45-100.4,100.4s45,100.5,100.4,100.5s100.4-45,100.4-100.4
			S299.3,173.5,243.9,173.5z M243.9,357c-45.8,0-83-37.2-83-83s37.2-83,83-83s83,37.2,83,83S289.6,357,243.9,357z"/>
	</g>
</g>
</svg>
