<?xml version="1.0" encoding="utf-8"?>
<!-- Generator: Adobe Illustrator 19.2.1, SVG Export Plug-In . SVG Version: 6.00 Build 0)  -->
<svg version="1.1" id="Warstwa_1" xmlns="http://www.w3.org/2000/svg" xmlns:xlink="http://www.w3.org/1999/xlink" x="0px" y="0px"
	 viewBox="0 0 297 297" style="enable-background:new 0 0 297 297;" xml:space="preserve">
<style type="text/css">
	.st0{fill:#BF360C;}
</style>
<path class="st0" d="M227.2,261.6L202.7,89.9c-0.7-5.2-5.1-9-10.4-9h-5.6c-3.7-13.5-14.3-24.1-27.8-27.8V20.9h32.7
	c5.8,0,10.5-4.7,10.5-10.5S197.4,0,191.6,0h-69c-0.1,0-0.1,0-0.2,0c-14.5,0.3-36.1,10.2-36.1,36.3c0,5.8,4.7,10.5,10.5,10.5
	s10.5-4.7,10.5-10.5c0-13.7,11.9-15.3,15.6-15.4H138v32.3c-13.5,3.7-24.1,14.3-27.8,27.8h-5.6c-5.2,0-9.6,3.8-10.4,9L69.8,261.6
	c-1.6,8.7,0.6,17.6,6.2,24.5C81.8,293,90.2,297,99.1,297h98.7c9,0,17.4-4,23.1-10.9C226.6,279.2,228.8,270.3,227.2,261.6
	L227.2,261.6z M200.7,224.3H159V159h32.4L200.7,224.3L200.7,224.3z M148.5,72.7c6.5,0,12.2,3.3,15.5,8.3H133
	C136.3,76,142,72.7,148.5,72.7z M204.8,272.8c-1,1.2-3.2,3.3-6.9,3.3H99.1c-3.7,0-5.9-2-6.9-3.3s-2.6-3.8-1.9-7.4
	c0-0.2,0.1-0.4,0.1-0.6l23.3-163h69.5l5.2,36.2h-39.9c-5.8,0-10.5,4.7-10.5,10.5v86.3c0,5.8,4.7,10.5,10.5,10.5h55.2l2.8,19.6
	c0,0.2,0.1,0.4,0.1,0.6C207.3,269,205.8,271.6,204.8,272.8L204.8,272.8z"/>
</svg>
