<?xml version="1.0" encoding="utf-8"?>
<!-- Generator: Adobe Illustrator 19.2.1, SVG Export Plug-In . SVG Version: 6.00 Build 0)  -->
<svg version="1.1" id="Layer_1" xmlns="http://www.w3.org/2000/svg" xmlns:xlink="http://www.w3.org/1999/xlink" x="0px" y="0px"
	 viewBox="0 0 512 512" style="enable-background:new 0 0 512 512;" xml:space="preserve">
<style type="text/css">
	.st0{fill:#BF360C;}
</style>
<g>
	<g>
		<g>
			<path class="st0" d="M315.9,343.2l44.4-43.3c2.9-2.8,4-7.1,2.7-10.9s-4.6-6.7-8.6-7.3l-61.4-8.9l-27.5-55.6
				c-1.8-3.6-5.5-5.9-9.6-5.9s-7.8,2.3-9.6,5.9L219,272.8l-61.4,8.9c-4,0.6-7.4,3.4-8.6,7.3c-1.3,3.9-0.2,8.1,2.7,10.9l44.4,43.3
				l-10.5,61.1c-0.7,4,1,8,4.2,10.4c3.3,2.4,7.6,2.7,11.2,0.8l54.9-28.9l54.9,28.9c1.6,0.8,3.3,1.2,5,1.2c2.2,0,4.4-0.7,6.3-2
				c3.3-2.4,4.9-6.4,4.2-10.4L315.9,343.2z M297,331.8c-2.5,2.5-3.7,6-3.1,9.4l7.8,45.4l-40.8-21.4c-1.5-0.8-3.3-1.2-5-1.2
				s-3.4,0.4-5,1.2l-40.8,21.4l7.8-45.4c0.6-3.5-0.5-7-3.1-9.4l-33-32.1l45.6-6.6c3.5-0.5,6.5-2.7,8-5.8l20.4-41.3l20.4,41.3
				c1.6,3.2,4.6,5.3,8,5.8l45.6,6.6L297,331.8z"/>
			<path class="st0" d="M448,319.9c0-51.3-20-99.5-56.2-135.7C355.5,148,307.3,128,256,128c-20.4,0-40.3,3.2-59.2,9.3
				c17.6-23.2,35.4-40,52-48.7c13.1-6.8,25-8.2,35.2-4c26.3,10.7,52.8,8.6,76.8-6.1c6.7,4.4,14.6,6.9,23.2,6.9
				c23.5,0,42.7-19.1,42.7-42.7C426.6,19.1,407.5,0,384,0c-23.5,0-42.7,19.1-42.7,42.7c0,7.1,1.7,13.7,4.8,19.6
				c-17.2,9.3-35.4,10.1-54.1,2.5c-16.3-6.6-34.2-5-53.1,4.9c-25.9,13.5-53.8,43.2-79.3,84.2c-14.2,8.3-27.5,18.4-39.4,30.4
				C84,220.5,64,268.7,64,320c0,51.3,20,99.5,56.2,135.8S204.7,512,256,512c51.3,0,99.5-20,135.7-56.2
				C428,419.5,448,371.3,448,319.9C448,320,448,320,448,319.9C448,320,448,320,448,319.9z M384,21.3c11.8,0,21.3,9.6,21.3,21.3
				c0,11.8-9.6,21.3-21.3,21.3c-11.8,0-21.3-9.6-21.3-21.3C362.6,30.9,372.2,21.3,384,21.3z M161.6,462.2
				c-9.3-6.2-18.1-13.4-26.3-21.6c-8.1-8.1-15.3-16.9-21.5-26.3c4.3-2.6,6.1-7.8,4.6-12.4c6.8,11.3,14.9,21.9,24.5,31.5
				c9.3,9.3,19.6,17.4,30.6,24C169,456.3,164.1,458.1,161.6,462.2z M245.3,490.3c-23-1.4-45.1-7.4-65.3-17.4
				c2.3-4.3,1.5-9.4-1.8-12.7c22.8,12.7,48.5,19.7,75.2,20.1C248.9,481.5,245.5,485.5,245.3,490.3z M256,459
				c-76.5,0-138.7-62.2-138.7-138.7c0-76.5,62.2-138.7,138.7-138.7c76.5,0,138.7,62.2,138.7,138.7C394.6,396.8,332.4,459,256,459z
				 M332,472.9c-20.2,10.1-42.3,16-65.3,17.4c-0.2-4.8-3.5-8.9-8-10c26.8-0.4,52.4-7.4,75.2-20.1C330.5,463.5,329.6,468.6,332,472.9
				z M376.7,440.7c-8.1,8.1-16.9,15.3-26.3,21.6c-2.5-4.1-7.4-6-11.9-4.7c11-6.7,21.3-14.7,30.6-24c9.6-9.6,17.8-20.1,24.5-31.5
				c-1.5,4.6,0.3,9.8,4.6,12.4C392,423.7,384.8,432.5,376.7,440.7z M426.3,330.6c-1.4,23-7.4,45.1-17.4,65.3
				c-4.4-2.4-9.8-1.4-13.1,2.2c13.1-23.5,20.1-50.2,20.1-77.9c0-42.7-16.6-82.9-46.9-113.1c-30.2-30.2-70.4-46.9-113.1-46.9
				c-42.7,0-82.9,16.6-113.1,46.9C112.6,237.4,96,277.6,96,320.4c0,27.7,7,54.3,20.1,77.8c-3.3-3.6-8.6-4.6-13.1-2.2
				c-10.1-20.2-16-42.3-17.4-65.3c5.7-0.2,10.3-4.9,10.3-10.6c0-5.8-4.6-10.5-10.3-10.7c1.4-23,7.3-45.1,17.4-65.3
				c1.6,0.9,3.4,1.3,5.1,1.3c3.7,0,7.3-1.9,9.3-5.3c2.9-5,1.2-11.4-3.7-14.4c6.2-9.3,13.4-18.1,21.5-26.3
				c8.1-8.1,16.9-15.3,26.3-21.5c2,3.3,5.5,5.1,9.1,5.1c1.8,0,3.6-0.5,5.3-1.4c5-2.9,6.8-9.3,4-14.3c20.2-10.1,42.3-16,65.3-17.4
				c0.2,5.7,4.9,10.3,10.7,10.3c5.8,0,10.5-4.6,10.6-10.3c23,1.4,45.1,7.4,65.3,17.4c-2.8,5.1-1,11.4,4,14.3c1.7,1,3.5,1.4,5.3,1.4
				c3.6,0,7.1-1.8,9.1-5.1c9.3,6.2,18.1,13.4,26.3,21.5c8.1,8.1,15.3,16.9,21.5,26.3c-4.9,3-6.6,9.4-3.7,14.4c2,3.4,5.6,5.3,9.3,5.3
				c1.7,0,3.5-0.4,5.1-1.3c10.1,20.2,16,42.3,17.4,65.3c-5.7,0.2-10.3,4.9-10.3,10.7S420.6,330.5,426.3,330.6z"/>
		</g>
	</g>
</g>
</svg>
